<svg xmlns="http://www.w3.org/2000/svg" viewBox="0 0 136 22" width="136" height="22">
	<style>
		tspan { white-space:pre }
		.shp0 { fill: #1b4a8a } 
		.shp1 { fill: #ffffff } 
	</style>
	<g id="logo">
		<path id="testtask" fill="#212529" d="M44.2 7.18L44.2 17L42.33 17L42.33 7.18L38.98 7.18L38.98 5.58L47.56 5.58L47.56 7.18L44.2 7.18ZM58.97 15.41L58.97 17L52.51 17L52.51 5.58L58.97 5.58L58.97 7.16L54.38 7.16L54.38 10.27L58.68 10.27L58.68 11.83L54.38 11.83L54.38 15.41L58.97 15.41ZM71.23 13.9Q71.23 15.42 70.13 16.29Q69.02 17.16 67.09 17.16Q65.15 17.16 63.91 16.55L63.91 14.79Q64.7 15.16 65.57 15.37Q66.45 15.58 67.21 15.58Q68.32 15.58 68.84 15.16Q69.38 14.73 69.38 14.02Q69.38 13.38 68.89 12.94Q68.41 12.49 66.89 11.88Q65.33 11.25 64.69 10.44Q64.05 9.63 64.05 8.48Q64.05 7.05 65.06 6.23Q66.08 5.41 67.79 5.41Q69.43 5.41 71.05 6.13L70.46 7.66Q68.94 7.02 67.74 7.02Q66.84 7.02 66.37 7.41Q65.9 7.8 65.9 8.45Q65.9 8.9 66.09 9.22Q66.27 9.53 66.7 9.81Q67.13 10.09 68.25 10.55Q69.51 11.08 70.09 11.53Q70.68 11.98 70.95 12.55Q71.23 13.13 71.23 13.9ZM80.58 7.18L80.58 17L78.72 17L78.72 7.18L75.36 7.18L75.36 5.58L83.94 5.58L83.94 7.18L80.58 7.18ZM92.84 7.18L92.84 17L90.97 17L90.97 7.18L87.61 7.18L87.61 5.58L96.2 5.58L96.2 7.18L92.84 7.18ZM110.22 17L108.23 17L107.09 13.83L102.73 13.83L101.61 17L99.64 17L103.91 5.53L105.94 5.53L110.22 17ZM103.27 12.22L106.6 12.22L105.53 9.11Q105.41 8.8 105.2 8.13Q105 7.45 104.92 7.14Q104.71 8.1 104.3 9.24L103.27 12.22ZM121.51 13.9Q121.51 15.42 120.41 16.29Q119.31 17.16 117.37 17.16Q115.43 17.16 114.2 16.55L114.2 14.79Q114.98 15.16 115.85 15.37Q116.74 15.58 117.5 15.58Q118.6 15.58 119.13 15.16Q119.66 14.73 119.66 14.02Q119.66 13.38 119.18 12.94Q118.69 12.49 117.18 11.88Q115.61 11.25 114.97 10.44Q114.33 9.63 114.33 8.48Q114.33 7.05 115.35 6.23Q116.36 5.41 118.07 5.41Q119.71 5.41 121.34 6.13L120.75 7.66Q119.22 7.02 118.03 7.02Q117.12 7.02 116.65 7.41Q116.18 7.8 116.18 8.45Q116.18 8.9 116.37 9.22Q116.56 9.53 116.99 9.81Q117.42 10.09 118.53 10.55Q119.79 11.08 120.38 11.53Q120.96 11.98 121.24 12.55Q121.51 13.13 121.51 13.9ZM131.23 10.59L135.64 17L133.48 17L129.89 11.83L128.79 12.73L128.79 17L126.92 17L126.92 5.58L128.79 5.58L128.79 11.03Q129.55 10.09 130.31 9.23L133.4 5.58L135.52 5.58Q132.53 9.09 131.23 10.59Z" />
		<path id="Shape 4" class="shp0" d="M8 1L1 11L8 21L24 21L31 11L24 1L8 1Z" />
		<path id="Rectangle 18" class="shp1" d="M21 17L19 17L19 7L17 7L17 5L23 5L23 7L21 7L21 17ZM13 17L11 17L11 7L9 7L9 5L15 5L15 7L13 7L13 17Z" />
	</g>
</svg>